<svg width="27" height="28" viewBox="0 0 27 28" fill="none" xmlns="http://www.w3.org/2000/svg">
<path fill-rule="evenodd" clip-rule="evenodd" d="M15.3229 0.0985754C15.1558 0.0310838 14.9768 -0.00238879 14.7965 0.000132548C14.6162 0.00265388 14.4382 0.0411182 14.2731 0.113256C14.1079 0.185393 13.959 0.289743 13.835 0.420145C13.711 0.550548 13.6145 0.704362 13.5512 0.87251C13.4879 1.04066 13.459 1.21973 13.4663 1.39917C13.4736 1.5786 13.517 1.75476 13.5937 1.91725C13.6705 2.07973 13.7792 2.22525 13.9134 2.34522C14.0476 2.46519 14.2046 2.55718 14.375 2.61575L14.849 2.79325V7.05309L0.991248 10.8181C0.676599 10.9045 0.404037 11.1015 0.223997 11.3726C0.043957 11.6438 -0.0313721 11.9707 0.0119492 12.2928C0.0552706 12.615 0.21431 12.9106 0.459637 13.125C0.704963 13.3394 1.01997 13.458 1.34637 13.459V21.5269C1.34637 22.2401 1.63089 22.9241 2.13733 23.4285C2.64378 23.9328 3.33067 24.2162 4.04689 24.2162H22.9506C23.6668 24.2162 24.3537 23.9328 24.8601 23.4285C25.3666 22.9241 25.6511 22.2401 25.6511 21.5269V6.73575C25.9672 6.73544 26.2732 6.6247 26.5157 6.42282C26.7582 6.22094 26.9219 5.94072 26.9783 5.63098C27.0347 5.32125 26.9802 5.00163 26.8243 4.72781C26.6684 4.45398 26.4209 4.24332 26.125 4.13252L15.3229 0.0985754ZM22.9506 5.8187L17.5495 3.80173V21.5269H22.9506V5.8187ZM10.7982 17.4929V21.5269H14.849V9.84189L4.04689 12.7732V21.5269H8.09768V17.4929C8.09768 17.1363 8.23994 16.7943 8.49316 16.5421C8.74638 16.2899 9.08983 16.1483 9.44794 16.1483C9.80605 16.1483 10.1495 16.2899 10.4027 16.5421C10.6559 16.7943 10.7982 17.1363 10.7982 17.4929ZM18.2246 10.7697C18.2246 10.4131 18.3669 10.0711 18.6201 9.81888C18.8733 9.56672 19.2168 9.42505 19.5749 9.42505H20.9252C21.2833 9.42505 21.6267 9.56672 21.8799 9.81888C22.1332 10.0711 22.2754 10.4131 22.2754 10.7697C22.2754 11.1263 22.1332 11.4683 21.8799 11.7205C21.6267 11.9727 21.2833 12.1143 20.9252 12.1143H19.5749C19.2168 12.1143 18.8733 11.9727 18.6201 11.7205C18.3669 11.4683 18.2246 11.1263 18.2246 10.7697ZM19.5749 14.8036C19.2168 14.8036 18.8733 14.9453 18.6201 15.1975C18.3669 15.4496 18.2246 15.7917 18.2246 16.1483C18.2246 16.5049 18.3669 16.8469 18.6201 17.0991C18.8733 17.3513 19.2168 17.4929 19.5749 17.4929H20.9252C21.2833 17.4929 21.6267 17.3513 21.8799 17.0991C22.1332 16.8469 22.2754 16.5049 22.2754 16.1483C22.2754 15.7917 22.1332 15.4496 21.8799 15.1975C21.6267 14.9453 21.2833 14.8036 20.9252 14.8036H19.5749Z" fill="url(#paint0_linear_294_355)"/>
<defs>
<linearGradient id="paint0_linear_294_355" x1="13.5" y1="0" x2="13.5" y2="24.2162" gradientUnits="userSpaceOnUse">
<stop stop-color="#1578DB"/>
<stop offset="1" stop-color="#A3CFFF"/>
</linearGradient>
</defs>
</svg>
