<svg width="32" height="32" viewBox="0 0 32 32" fill="none" xmlns="http://www.w3.org/2000/svg">
<path d="M28.7038 6L20.5 14.1062V6H18.3422L10.5 13.9542V1H1V31H31V6H28.7038ZM29 29H3V3H8.5V16.5H10.7986L18.5 8.68863V16.5H20.9228L29 8.51875V29Z" fill="white"/>
<path d="M8.5 20.5V21H10.5V19H8.5V20.5ZM8.5 23.5H10.5V25.5H8.5V23.5ZM13.5 20.5V21H15.5V19H13.5V20.5ZM13.5 23.5H15.5V25.5H13.5V23.5ZM18.5 20.5V21H20.5V19H18.5V20.5ZM18.5 23.5H20.5V25.5H18.5V23.5ZM23.5 19H25.5V21H23.5V19ZM23.5 23.5H25.5V25.5H23.5V23.5Z" fill="white"/>
</svg>
