<svg width="31" height="31" viewBox="0 0 31 31" fill="none" xmlns="http://www.w3.org/2000/svg">
<path d="M22.6045 24.5418H11.6253C9.94853 24.5414 8.30492 24.0747 6.87812 23.1939C5.45133 22.3132 4.29756 21.053 3.54575 19.5542C2.79393 18.0554 2.47369 16.3771 2.62081 14.7069C2.76793 13.0366 3.37661 11.4401 4.37884 10.0958C5.38107 8.75154 6.73736 7.71244 8.29615 7.09463C9.85494 6.47681 11.5548 6.30463 13.2058 6.59731C14.8569 6.88998 16.394 7.636 17.6454 8.75199C18.8968 9.86798 19.8133 11.31 20.2924 12.9168H22.6045C24.146 12.9168 25.6245 13.5292 26.7145 14.6193C27.8046 15.7093 28.417 17.1878 28.417 18.7293C28.417 20.2709 27.8046 21.7493 26.7145 22.8394C25.6245 23.9294 24.146 24.5418 22.6045 24.5418Z" stroke="white" stroke-width="1.5" stroke-linecap="round" stroke-linejoin="round"/>
</svg>
