<svg width="26" height="26" viewBox="0 0 26 26" fill="none" xmlns="http://www.w3.org/2000/svg">
<rect x="0.5" y="0.5" width="25" height="25" rx="3.5" stroke="white"/>
<path d="M9.20508 7.74977C9.20488 8.1476 9.04665 8.52905 8.76521 8.81021C8.48376 9.09138 8.10215 9.24922 7.70433 9.24902C7.3065 9.24882 6.92505 9.0906 6.64389 8.80915C6.36272 8.52771 6.20488 8.1461 6.20508 7.74827C6.20528 7.35045 6.3635 6.969 6.64495 6.68783C6.92639 6.40667 7.308 6.24882 7.70583 6.24902C8.10365 6.24922 8.48511 6.40745 8.76627 6.68889C9.04743 6.97034 9.20528 7.35195 9.20508 7.74977ZM9.25008 10.3598H6.25008V19.7498H9.25008V10.3598ZM13.9901 10.3598H11.0051V19.7498H13.9601V14.8223C13.9601 12.0773 17.5376 11.8223 17.5376 14.8223V19.7498H20.5001V13.8023C20.5001 9.17477 15.2051 9.34727 13.9601 11.6198L13.9901 10.3598Z" fill="white"/>
</svg>
