<svg width="31" height="31" viewBox="0 0 31 31" fill="none" xmlns="http://www.w3.org/2000/svg">
<path d="M23.25 10.3335C23.25 15.0003 18.2525 19.9293 16.284 21.6937C16.0589 21.8657 15.7834 21.9589 15.5 21.9589C15.2166 21.9589 14.9411 21.8657 14.716 21.6937C12.7487 19.9293 7.75 15.0003 7.75 10.3335C7.75 8.27807 8.56652 6.30683 10.0199 4.85342C11.4733 3.40001 13.4446 2.5835 15.5 2.5835C17.5554 2.5835 19.5267 3.40001 20.9801 4.85342C22.4335 6.30683 23.25 8.27807 23.25 10.3335Z" stroke="white" stroke-width="1.5" stroke-linecap="round" stroke-linejoin="round"/>
<path d="M15.5003 12.9167C16.9271 12.9167 18.0837 11.7601 18.0837 10.3333C18.0837 8.9066 16.9271 7.75 15.5003 7.75C14.0736 7.75 12.917 8.9066 12.917 10.3333C12.917 11.7601 14.0736 12.9167 15.5003 12.9167Z" stroke="white" stroke-width="1.5" stroke-linecap="round" stroke-linejoin="round"/>
<path d="M11.2557 18.0835H6.4636C6.19278 18.0836 5.92884 18.1689 5.7091 18.3272C5.48937 18.4855 5.32495 18.7088 5.2391 18.9657L2.6506 26.7157C2.58571 26.9099 2.56789 27.1167 2.59862 27.319C2.62934 27.5214 2.70774 27.7136 2.82733 27.8798C2.94692 28.0459 3.10429 28.1812 3.28646 28.2746C3.46863 28.368 3.67039 28.4167 3.8751 28.4168H27.1251C27.3297 28.4167 27.5313 28.3679 27.7133 28.2746C27.8953 28.1813 28.0526 28.0461 28.1722 27.8801C28.2917 27.7142 28.3702 27.5222 28.401 27.3199C28.4319 27.1177 28.4142 26.9111 28.3496 26.717L25.7663 18.967C25.6806 18.7097 25.5161 18.4859 25.296 18.3273C25.076 18.1687 24.8117 18.0834 24.5405 18.0835H19.7458" stroke="white" stroke-width="1.5" stroke-linecap="round" stroke-linejoin="round"/>
</svg>
