<svg width="37" height="37" viewBox="0 0 37 37" fill="none" xmlns="http://www.w3.org/2000/svg">
<path d="M7.70833 32.3752C6.86042 32.3752 6.13481 32.0735 5.5315 31.4702C4.92819 30.8669 4.62603 30.1408 4.625 29.2918V23.1252C4.625 22.2772 4.92717 21.5516 5.5315 20.9483C6.13583 20.345 6.86144 20.0429 7.70833 20.0418H23.125V15.4168C23.125 14.98 23.273 14.6141 23.569 14.3192C23.865 14.0242 24.2309 13.8762 24.6667 13.8752C25.1024 13.8741 25.4688 14.0221 25.7659 14.3192C26.0629 14.6162 26.2104 14.9821 26.2083 15.4168V20.0418H29.2917C30.1396 20.0418 30.8657 20.344 31.47 20.9483C32.0744 21.5527 32.376 22.2783 32.375 23.1252V29.2918C32.375 30.1397 32.0733 30.8659 31.47 31.4702C30.8667 32.0745 30.1406 32.3762 29.2917 32.3752H7.70833ZM7.70833 29.2918H29.2917V23.1252H7.70833V29.2918ZM11.8909 27.3077C12.1858 27.0117 12.3333 26.6453 12.3333 26.2085C12.3333 25.7717 12.1853 25.4058 11.8893 25.1108C11.5933 24.8159 11.2274 24.6679 10.7917 24.6668C10.3559 24.6658 9.99 24.8138 9.694 25.1108C9.398 25.4079 9.25 25.7737 9.25 26.2085C9.25 26.6432 9.398 27.0096 9.694 27.3077C9.99 27.6058 10.3559 27.7532 10.7917 27.7502C11.2274 27.7471 11.5938 27.6006 11.8909 27.3077ZM17.2867 27.3062C17.5817 27.0112 17.7292 26.6453 17.7292 26.2085C17.7292 25.7717 17.5812 25.4058 17.2852 25.1108C16.9892 24.8159 16.6233 24.6679 16.1875 24.6668C15.7517 24.6658 15.3858 24.8138 15.0898 25.1108C14.7938 25.4079 14.6458 25.7737 14.6458 26.2085C14.6458 26.6432 14.7938 27.0096 15.0898 27.3077C15.3858 27.6058 15.7517 27.7532 16.1875 27.7502C16.6233 27.7471 16.9897 27.5991 17.2867 27.3062ZM22.6825 27.3062C22.9775 27.0122 23.125 26.6463 23.125 26.2085C23.125 25.7707 22.977 25.4048 22.681 25.1108C22.385 24.8169 22.0191 24.6689 21.5833 24.6668C21.1476 24.6648 20.7817 24.8128 20.4857 25.1108C20.1897 25.4089 20.0417 25.7748 20.0417 26.2085C20.0417 26.6422 20.1897 27.0086 20.4857 27.3077C20.7817 27.6068 21.1476 27.7543 21.5833 27.7502C22.0191 27.7461 22.3855 27.5981 22.6825 27.3062ZM24.6667 11.5627C24.384 11.5627 24.1271 11.5884 23.8958 11.6397C23.6646 11.6911 23.4333 11.7682 23.2021 11.871C22.791 12.0509 22.3737 12.1279 21.9502 12.1022C21.5268 12.0766 21.1604 11.9095 20.851 11.6012C20.5417 11.2929 20.3937 10.9203 20.407 10.4835C20.4204 10.0467 20.6069 9.72551 20.9667 9.51995C21.5063 9.18593 22.0911 8.92898 22.7211 8.74912C23.3511 8.56926 23.9996 8.47933 24.6667 8.47933C25.3604 8.47933 26.0156 8.56926 26.6323 8.74912C27.249 8.92898 27.8271 9.18593 28.3667 9.51995C28.7264 9.72551 28.9129 10.0467 28.9263 10.4835C28.9397 10.9203 28.7917 11.2929 28.4823 11.6012C28.1729 11.9095 27.8004 12.0766 27.3646 12.1022C26.9288 12.1279 26.5048 12.0509 26.0927 11.871C25.8872 11.7682 25.6626 11.6911 25.419 11.6397C25.1754 11.5884 24.9246 11.5627 24.6667 11.5627ZM21.7961 6.60929C20.8834 6.90529 20.0417 7.33593 19.2708 7.9012C18.9111 8.15815 18.519 8.27377 18.0945 8.24808C17.6701 8.22238 17.317 8.06822 17.0354 7.78558C16.7271 7.47725 16.5729 7.11752 16.5729 6.70641C16.5729 6.2953 16.7399 5.96127 17.074 5.70433C18.1274 4.88211 19.2965 4.23975 20.5813 3.77725C21.866 3.31475 23.2278 3.0835 24.6667 3.0835C26.1056 3.0835 27.4674 3.31475 28.7521 3.77725C30.0368 4.23975 31.2059 4.88211 32.2594 5.70433C32.5934 5.96127 32.7604 6.2953 32.7604 6.70641C32.7604 7.11752 32.6063 7.47725 32.2979 7.78558C32.0153 8.06822 31.6617 8.22238 31.2372 8.24808C30.8128 8.27377 30.4212 8.15815 30.0625 7.9012C29.2917 7.33593 28.4499 6.9058 27.5372 6.61083C26.6246 6.31586 25.6677 6.16786 24.6667 6.16683C23.6656 6.1658 22.7087 6.31226 21.7961 6.60929Z" fill="url(#paint0_linear_294_406)"/>
<defs>
<linearGradient id="paint0_linear_294_406" x1="18.6927" y1="3.0835" x2="18.6927" y2="32.3752" gradientUnits="userSpaceOnUse">
<stop stop-color="#1578DB"/>
<stop offset="1" stop-color="#A3CFFF"/>
</linearGradient>
</defs>
</svg>
