<svg width="32" height="32" viewBox="0 0 32 32" fill="none" xmlns="http://www.w3.org/2000/svg">
<g clip-path="url(#clip0_612_43)">
<path d="M16 2.13333H17.0667C17.0667 1.93541 17.0116 1.74138 16.9076 1.57297C16.8036 1.40456 16.6548 1.2684 16.4779 1.17973L16 2.13333ZM16 4.26667L16.4779 5.22027C16.6548 5.1316 16.8036 4.99544 16.9076 4.82703C17.0116 4.65862 17.0667 4.46459 17.0667 4.26667H16ZM13.8667 5.33333L13.3888 4.37973C13.2219 4.46348 13.0799 4.58957 12.977 4.7454C12.8741 4.90124 12.814 5.08135 12.8025 5.26773C12.7911 5.45412 12.8287 5.64024 12.9118 5.80749C12.9948 5.97474 13.1203 6.11726 13.2757 6.2208L13.8667 5.33333ZM17.0667 7.46667L16.4757 8.35413C16.6507 8.47082 16.8563 8.53317 17.0667 8.53333V7.46667ZM18.1333 7.46667V8.53333C18.4162 8.53333 18.6875 8.42095 18.8876 8.22091C19.0876 8.02087 19.2 7.74956 19.2 7.46667H18.1333ZM18.1333 5.33333V4.26667C17.8504 4.26667 17.5791 4.37905 17.3791 4.57909C17.179 4.77913 17.0667 5.05044 17.0667 5.33333H18.1333ZM21.3333 5.33333H22.4C22.4 5.05044 22.2876 4.77913 22.0876 4.57909C21.8875 4.37905 21.6162 4.26667 21.3333 4.26667V5.33333ZM21.3333 7.46667H20.2667C20.2664 7.60684 20.2938 7.74568 20.3472 7.87527C20.4007 8.00485 20.4791 8.12263 20.5781 8.22187L21.3333 7.46667ZM22.4 8.53333H23.4667C23.4669 8.39316 23.4395 8.25432 23.3861 8.12474C23.3327 7.99515 23.2542 7.87737 23.1552 7.77813L22.4 8.53333ZM22.4 10.6667L23.1552 11.4219C23.2542 11.3226 23.3327 11.2048 23.3861 11.0753C23.4395 10.9457 23.4669 10.8068 23.4667 10.6667H22.4ZM21.3333 11.7333V12.8C21.4735 12.8003 21.6124 12.7729 21.7419 12.7194C21.8715 12.666 21.9893 12.5875 22.0885 12.4885L21.3333 11.7333ZM19.2 11.7333L18.7221 12.6869C18.8705 12.7613 19.0341 12.8 19.2 12.8V11.7333ZM14.9333 9.6L15.4112 8.6464C15.2629 8.57207 15.0992 8.53337 14.9333 8.53337C14.7674 8.53337 14.6038 8.57207 14.4555 8.6464L14.9333 9.6ZM12.8 10.6667V11.7333C12.9659 11.7333 13.1295 11.6946 13.2779 11.6203L12.8 10.6667ZM9.6 10.6667V9.6C9.36207 9.60007 9.13099 9.67968 8.94351 9.82619C8.75603 9.97269 8.62291 10.1777 8.56533 10.4085L9.6 10.6667ZM8.53333 14.9333L7.49867 14.6752C7.45378 14.8539 7.45593 15.0411 7.50491 15.2187C7.55388 15.3963 7.64802 15.5581 7.77813 15.6885L8.53333 14.9333ZM11.7333 18.1333L10.9781 18.8885C11.0593 18.9691 11.153 19.0361 11.2555 19.0869L11.7333 18.1333ZM13.8667 19.2H14.9333C14.9333 19.0021 14.8783 18.8081 14.7743 18.6396C14.6703 18.4712 14.5215 18.3351 14.3445 18.2464L13.8667 19.2ZM13.8667 22.4H12.8C12.7998 22.5402 12.8271 22.679 12.8806 22.8086C12.934 22.9382 13.0125 23.056 13.1115 23.1552L13.8667 22.4ZM14.9333 23.4667H16C16.0003 23.3265 15.9729 23.1877 15.9194 23.0581C15.866 22.9285 15.7875 22.8107 15.6885 22.7115L14.9333 23.4667ZM14.9333 25.6H13.8667C13.8667 25.7659 13.9054 25.9295 13.9797 26.0779L14.9333 25.6ZM16 27.7333L15.0464 28.2112C15.1351 28.3882 15.2712 28.5369 15.4396 28.6409C15.6081 28.7449 15.8021 28.8 16 28.8V27.7333ZM18.1333 27.7333V28.8C18.309 28.7999 18.4819 28.7564 18.6367 28.6734C18.7916 28.5905 18.9235 28.4705 19.0208 28.3243L18.1333 27.7333ZM20.2667 24.5333L21.1541 25.1243L21.2203 25.0112L20.2667 24.5333ZM21.3333 22.4L22.2869 22.8779C22.3613 22.7295 22.4 22.5659 22.4 22.4H21.3333ZM21.3333 20.2667L20.48 19.6267C20.3415 19.8113 20.2667 20.0359 20.2667 20.2667H21.3333ZM24.5333 16L25.3867 16.64C25.5056 16.4814 25.578 16.2928 25.5957 16.0953C25.6134 15.8979 25.5758 15.6994 25.4869 15.5221L24.5333 16ZM23.4667 13.8667V12.8C23.2848 12.8 23.1059 12.8465 22.947 12.9351C22.7882 13.0238 22.6546 13.1515 22.5591 13.3063C22.4635 13.4611 22.4091 13.6377 22.4011 13.8194C22.393 14.0012 22.4316 14.1819 22.5131 14.3445L23.4667 13.8667ZM26.6667 13.8667V14.9333C26.9496 14.9333 27.2209 14.821 27.4209 14.6209C27.621 14.4209 27.7333 14.1496 27.7333 13.8667H26.6667ZM26.6667 11.7333V10.6667C26.3838 10.6667 26.1125 10.779 25.9124 10.9791C25.7124 11.1791 25.6 11.4504 25.6 11.7333H26.6667ZM16 29.8667C12.3223 29.8667 8.79529 28.4057 6.19479 25.8052C3.59428 23.2047 2.13333 19.6777 2.13333 16H0C0 20.2435 1.68571 24.3131 4.68629 27.3137C7.68687 30.3143 11.7565 32 16 32V29.8667ZM29.8667 16C29.8667 17.821 29.508 19.6242 28.8111 21.3065C28.1143 22.9889 27.0929 24.5176 25.8052 25.8052C24.5176 27.0929 22.9889 28.1143 21.3065 28.8111C19.6242 29.508 17.821 29.8667 16 29.8667V32C20.2435 32 24.3131 30.3143 27.3137 27.3137C30.3143 24.3131 32 20.2435 32 16H29.8667ZM16 2.13333C17.821 2.13333 19.6242 2.49201 21.3065 3.18887C22.9889 3.88574 24.5176 4.90715 25.8052 6.19479C27.0929 7.48243 28.1143 9.01108 28.8111 10.6935C29.508 12.3758 29.8667 14.179 29.8667 16H32C32 11.7565 30.3143 7.68687 27.3137 4.68629C24.3131 1.68571 20.2435 0 16 0V2.13333ZM16 0C11.7565 0 7.68687 1.68571 4.68629 4.68629C1.68571 7.68687 0 11.7565 0 16H2.13333C2.13333 12.3223 3.59428 8.79529 6.19479 6.19479C8.79529 3.59428 12.3223 2.13333 16 2.13333V0ZM13.3888 2.02027L15.5221 3.08693L16.4779 1.17973L14.3445 0.113067L13.3888 2.02027ZM14.9333 2.13333V4.26667H17.0667V2.13333H14.9333ZM15.5221 3.31307L13.3888 4.37973L14.3445 6.28693L16.4779 5.22027L15.5221 3.31307ZM13.2757 6.2208L16.4757 8.35413L17.6576 6.5792L14.4576 4.44587L13.2757 6.2208ZM17.0667 8.53333H18.1333V6.4H17.0667V8.53333ZM19.2 7.46667V5.33333H17.0667V7.46667H19.2ZM18.1333 6.4H21.3333V4.26667H18.1333V6.4ZM20.2667 5.33333V7.46667H22.4V5.33333H20.2667ZM20.5781 8.22187L21.6448 9.28853L23.1552 7.77813L22.0885 6.71147L20.5781 8.22187ZM21.3333 8.53333V10.6667H23.4667V8.53333H21.3333ZM21.6448 9.91147L20.5781 10.9781L22.0885 12.4885L23.1552 11.4219L21.6448 9.91147ZM21.3333 10.6667H19.2V12.8H21.3333V10.6667ZM19.6779 10.7797L15.4112 8.6464L14.4555 10.5536L18.7221 12.6869L19.6779 10.7797ZM14.4555 8.6464L12.3221 9.71307L13.2779 11.6203L15.4112 10.5536L14.4555 8.6464ZM12.8 9.6H9.6V11.7333H12.8V9.6ZM8.56533 10.4085L7.49867 14.6752L9.568 15.1915L10.6347 10.9248L8.56533 10.4085ZM7.77813 15.6885L10.9781 18.8885L12.4885 17.3781L9.28853 14.1781L7.77813 15.6885ZM11.2555 19.0869L13.3888 20.1536L14.3445 18.2464L12.2112 17.1797L11.2555 19.0869ZM12.8 19.2V22.4H14.9333V19.2H12.8ZM13.1115 23.1552L14.1781 24.2219L15.6885 22.7115L14.6219 21.6448L13.1115 23.1552ZM13.8667 23.4667V25.6H16V23.4667H13.8667ZM13.9797 26.0779L15.0464 28.2112L16.9536 27.2555L15.8869 25.1221L13.9797 26.0779ZM16 28.8H18.1333V26.6667H16V28.8ZM19.0208 28.3243L21.1541 25.1243L19.3792 23.9424L17.2459 27.1424L19.0208 28.3243ZM21.2203 25.0112L22.2869 22.8779L20.3797 21.9221L19.3131 24.0555L21.2203 25.0112ZM22.4 22.4V20.2667H20.2667V22.4H22.4ZM22.1867 20.9067L25.3867 16.64L23.68 15.36L20.48 19.6267L22.1867 20.9067ZM25.4869 15.5221L24.4203 13.3888L22.5131 14.3445L23.5797 16.4779L25.4869 15.5221ZM23.4667 14.9333H26.6667V12.8H23.4667V14.9333ZM27.7333 13.8667V11.7333H25.6V13.8667H27.7333ZM26.6667 12.8H30.9333V10.6667H26.6667V12.8Z" fill="white"/>
</g>
<defs>
<clipPath id="clip0_612_43">
<rect width="32" height="32" fill="white"/>
</clipPath>
</defs>
</svg>
