<svg width="28" height="20" viewBox="0 0 28 20" fill="none" xmlns="http://www.w3.org/2000/svg">
<path d="M20.7685 18.8333H9.78935C8.11259 18.8329 6.46898 18.3662 5.04219 17.4854C3.61539 16.6047 2.46162 15.3445 1.70981 13.8457C0.957995 12.3469 0.637755 10.6686 0.784874 8.99835C0.931993 7.32806 1.54068 5.73158 2.5429 4.38731C3.54513 3.04304 4.90142 2.00394 6.46021 1.38613C8.019 0.768317 9.71888 0.59613 11.3699 0.888809C13.0209 1.18149 14.558 1.9275 15.8095 3.04349C17.0609 4.15948 17.9774 5.60147 18.4564 7.20834H20.7685C22.3101 7.20834 23.7885 7.82072 24.8786 8.91078C25.9686 10.0008 26.581 11.4793 26.581 13.0208C26.581 14.5624 25.9686 16.0408 24.8786 17.1309C23.7885 18.2209 22.3101 18.8333 20.7685 18.8333Z" stroke="white" stroke-width="1.5" stroke-linecap="round" stroke-linejoin="round"/>
</svg>
