<svg width="29" height="26" viewBox="0 0 29 26" fill="none" xmlns="http://www.w3.org/2000/svg">
<path d="M14.5003 5.4168C14.5017 4.9835 14.4065 4.55432 14.2202 4.1545C14.0339 3.75468 13.7604 3.3923 13.4156 3.08866C13.0708 2.78502 12.6617 2.54626 12.2125 2.38643C11.7633 2.22659 11.283 2.1489 10.7998 2.15793C10.3166 2.16696 9.8403 2.26253 9.39891 2.43901C8.95751 2.61549 8.55993 2.86932 8.22956 3.18557C7.89918 3.50183 7.64268 3.87412 7.47514 4.28055C7.30759 4.68698 7.23239 5.11935 7.25395 5.55222C6.54369 5.71595 5.88431 6.02244 5.32573 6.44847C4.76715 6.87451 4.32403 7.40892 4.02993 8.01122C3.73582 8.61353 3.59845 9.26794 3.62821 9.92489C3.65797 10.5818 3.85408 11.2241 4.2017 11.8031C3.5905 12.2482 3.10988 12.8205 2.80165 13.4702C2.49342 14.1199 2.36691 14.8273 2.43314 15.5308C2.49936 16.2343 2.75631 16.9127 3.18163 17.5068C3.60695 18.101 4.18776 18.593 4.87353 18.9401C4.78885 19.5275 4.83938 20.1242 5.02202 20.6935C5.20466 21.2627 5.51551 21.7923 5.9354 22.2496C6.35528 22.7069 6.87527 23.0821 7.46326 23.3522C8.05124 23.6223 8.69474 23.7814 9.354 23.8197C10.0133 23.8581 10.6743 23.7749 11.2963 23.5752C11.9183 23.3756 12.488 23.0637 12.9703 22.6589C13.4526 22.2541 13.8372 21.7649 14.1003 21.2216C14.3635 20.6783 14.4996 20.0924 14.5003 19.5001V5.4168Z" stroke="white" stroke-width="1.5" stroke-linecap="round" stroke-linejoin="round"/>
<path d="M10.875 14.0833C11.8895 13.7634 12.7753 13.1809 13.4206 12.4096C14.0658 11.6383 14.4415 10.7127 14.5 9.75" stroke="white" stroke-width="1.5" stroke-linecap="round" stroke-linejoin="round"/>
<path d="M7.25391 5.55225C7.2778 6.07629 7.4428 6.58737 7.73482 7.04183" stroke="white" stroke-width="1.5" stroke-linecap="round" stroke-linejoin="round"/>
<path d="M4.20142 11.804C4.42247 11.6426 4.65901 11.499 4.90829 11.375" stroke="white" stroke-width="1.5" stroke-linecap="round" stroke-linejoin="round"/>
<path d="M7.25008 19.4999C6.41734 19.5003 5.59861 19.3077 4.87329 18.9409" stroke="white" stroke-width="1.5" stroke-linecap="round" stroke-linejoin="round"/>
<path d="M14.5 14.0835H19.3333" stroke="white" stroke-width="1.5" stroke-linecap="round" stroke-linejoin="round"/>
<path d="M14.5 19.5H21.75C22.3909 19.5 23.0056 19.7283 23.4588 20.1346C23.9121 20.5409 24.1667 21.092 24.1667 21.6667V22.75" stroke="white" stroke-width="1.5" stroke-linecap="round" stroke-linejoin="round"/>
<path d="M14.5 8.6665H24.1667" stroke="white" stroke-width="1.5" stroke-linecap="round" stroke-linejoin="round"/>
<path d="M19.333 8.66667V5.41667C19.333 4.84203 19.5876 4.29093 20.0408 3.8846C20.494 3.47827 21.1087 3.25 21.7497 3.25" stroke="white" stroke-width="1.5" stroke-linecap="round" stroke-linejoin="round"/>
<path d="M19.3337 14.6248C19.6673 14.6248 19.9378 14.3823 19.9378 14.0832C19.9378 13.784 19.6673 13.5415 19.3337 13.5415C19 13.5415 18.7295 13.784 18.7295 14.0832C18.7295 14.3823 19 14.6248 19.3337 14.6248Z" stroke="white" stroke-width="1.5" stroke-linecap="round" stroke-linejoin="round"/>
<path d="M21.7497 3.79183C22.0833 3.79183 22.3538 3.54932 22.3538 3.25016C22.3538 2.95101 22.0833 2.7085 21.7497 2.7085C21.416 2.7085 21.1455 2.95101 21.1455 3.25016C21.1455 3.54932 21.416 3.79183 21.7497 3.79183Z" stroke="white" stroke-width="1.5" stroke-linecap="round" stroke-linejoin="round"/>
<path d="M24.1667 23.2918C24.5003 23.2918 24.7708 23.0493 24.7708 22.7502C24.7708 22.451 24.5003 22.2085 24.1667 22.2085C23.833 22.2085 23.5625 22.451 23.5625 22.7502C23.5625 23.0493 23.833 23.2918 24.1667 23.2918Z" stroke="white" stroke-width="1.5" stroke-linecap="round" stroke-linejoin="round"/>
<path d="M24.1667 9.20833C24.5003 9.20833 24.7708 8.96582 24.7708 8.66667C24.7708 8.36751 24.5003 8.125 24.1667 8.125C23.833 8.125 23.5625 8.36751 23.5625 8.66667C23.5625 8.96582 23.833 9.20833 24.1667 9.20833Z" stroke="white" stroke-width="1.5" stroke-linecap="round" stroke-linejoin="round"/>
</svg>
